<?xml version="1.0" standalone="no"?>
<!DOCTYPE svg PUBLIC "-//W3C//DTD SVG 20010904//EN"
 "http://www.w3.org/TR/2001/REC-SVG-20010904/DTD/svg10.dtd">
<svg version="1.0" xmlns="http://www.w3.org/2000/svg"
 width="374.000000pt" height="374.000000pt" viewBox="0 0 374.000000 374.000000"
 preserveAspectRatio="xMidYMid meet">
<metadata>
Created by potrace 1.11, written by Peter Selinger 2001-2013
</metadata>
<g transform="translate(0.000000,374.000000) scale(0.100000,-0.100000)"
fill="#000000" stroke="none">
<path d="M1268 3492 c-16 -2 -28 -7 -28 -12 0 -4 -8 -7 -17 -6 -10 2 -31 -10
-48 -26 -54 -51 -104 -80 -152 -89 -32 -6 -88 -35 -177 -93 -72 -46 -150 -94
-173 -107 -59 -33 -83 -97 -77 -206 6 -114 37 -217 112 -374 57 -119 83 -232
64 -274 -15 -34 -15 -85 0 -85 20 0 96 90 123 144 13 28 27 73 29 100 5 54 12
67 22 42 7 -18 1 -78 -16 -166 -18 -90 -21 -113 -21 -150 0 -55 -9 -90 -25
-90 -17 0 -16 4 -18 -130 -1 -58 -5 -115 -9 -127 -6 -17 -1 -28 23 -53 16 -17
30 -34 30 -38 0 -4 11 -20 25 -36 14 -16 25 -37 25 -46 0 -9 5 -21 12 -28 7
-7 8 -12 3 -12 -6 0 -4 -4 3 -9 7 -4 13 -21 14 -37 0 -55 -12 -148 -21 -157
-25 -25 37 -124 141 -223 135 -129 589 -403 695 -419 39 -6 82 6 205 58 91 38
258 130 252 139 -3 4 1 5 8 3 8 -3 22 2 33 11 20 15 20 15 -1 11 -19 -4 -19
-2 -10 29 6 19 13 28 18 21 3 -6 4 -16 1 -22 -4 -5 2 -3 13 6 10 9 26 14 34
12 16 -5 1 9 -37 34 -15 10 -14 11 13 7 18 -4 34 -1 38 5 4 6 2 11 -4 11 -7 0
-10 6 -8 12 3 7 -5 21 -16 31 -12 10 -15 16 -8 12 6 -3 12 -1 12 4 0 6 -5 11
-10 11 -6 0 -15 10 -19 23 -7 18 -3 28 21 54 18 18 28 38 25 47 -3 8 1 17 9
20 22 8 25 8 23 -7 -3 -13 10 -76 18 -90 10 -17 36 13 53 61 13 36 15 52 7 55
-7 2 -9 8 -5 12 4 4 14 5 23 1 12 -4 13 -10 5 -26 -5 -11 -14 -29 -20 -40 -15
-29 -13 -47 2 -32 17 17 33 15 18 -3 -7 -8 -19 -15 -26 -15 -19 0 -18 -18 1
-22 13 -3 13 -6 0 -32 -17 -32 -19 -39 -7 -32 10 6 8 -36 -2 -53 -30 -47 80
17 167 97 68 65 95 115 98 182 2 52 24 110 41 110 4 0 8 9 8 20 0 11 7 23 15
26 8 4 15 13 15 22 0 8 7 23 16 33 8 9 16 23 18 31 1 7 5 19 9 26 5 6 6 16 3
21 -3 5 0 26 7 47 7 22 12 54 11 72 -1 17 1 32 6 32 5 0 7 16 6 35 -2 19 1 35
7 35 5 0 5 6 -2 14 -6 7 -9 20 -5 29 3 8 -3 28 -13 43 -16 25 -18 53 -18 279
0 137 2 259 6 270 4 12 12 -13 22 -69 16 -85 49 -170 80 -209 16 -20 74 -40
81 -28 3 4 -8 35 -24 69 -15 33 -26 62 -24 64 2 3 -3 28 -12 57 l-15 53 65
137 c65 137 84 195 107 328 16 93 7 199 -17 224 -40 39 -291 178 -386 214 -25
9 -62 31 -81 49 -80 72 -105 80 -178 61 -59 -15 -134 -14 -234 3 -28 4 -91 5
-140 0 -50 -5 -226 -6 -393 -3 -168 2 -313 0 -326 -5 -16 -6 -30 -4 -42 4 -27
18 -45 22 -76 18z m522 -82 c0 -5 -4 -10 -10 -10 -5 0 -10 5 -10 10 0 6 5 10
10 10 6 0 10 -4 10 -10z m290 -44 c0 -2 -7 -6 -15 -10 -8 -3 -15 -1 -15 4 0 6
7 10 15 10 8 0 15 -2 15 -4z m30 -6 c0 -5 -2 -10 -4 -10 -3 0 -8 5 -11 10 -3
6 -1 10 4 10 6 0 11 -4 11 -10z m40 -12 c0 -6 -6 -5 -15 2 -8 7 -15 14 -15 16
0 2 7 1 15 -2 8 -4 15 -11 15 -16z m-373 -11 c6 -13 8 -29 3 -36 -4 -8 -9 -1
-13 19 -5 20 -11 29 -18 24 -8 -4 -9 -3 -5 4 11 18 22 14 33 -11z m136 -51
c14 -26 21 -49 17 -57 -6 -8 -12 1 -19 27 -6 21 -18 50 -27 63 -10 13 -13 21
-7 18 6 -4 22 -27 36 -51z m-155 3 c-1 -16 -5 -32 -9 -35 -5 -3 -6 3 -2 13 6
15 4 16 -9 5 -18 -15 -11 -63 11 -70 9 -3 11 2 6 18 -5 15 -4 20 4 16 7 -5 11
2 11 16 1 21 2 22 14 5 13 -17 14 -17 20 0 6 15 8 15 16 3 5 -8 17 -15 27 -15
10 0 19 -9 21 -20 3 -17 1 -18 -8 -5 -9 12 -10 9 -6 -15 l6 -30 -20 24 c-11
13 -21 20 -21 17 -1 -3 -3 -10 -4 -16 -1 -5 -3 -15 -4 -21 0 -5 -6 -7 -11 -4
-6 4 -8 10 -5 15 3 4 -2 13 -9 19 -11 10 -16 8 -21 -8 -5 -17 -10 -19 -25 -11
-23 12 -33 13 -26 1 3 -4 1 -22 -4 -39 -5 -19 -5 -34 1 -37 5 -4 10 2 11 12 0
10 2 23 2 30 2 21 12 22 13 1 1 -12 7 -26 14 -32 9 -8 10 -4 6 19 l-6 30 15
-33 c8 -19 19 -30 26 -26 6 4 9 1 6 -7 -3 -8 -17 -14 -32 -15 -14 -1 -29 -4
-32 -7 -12 -12 -45 14 -42 32 2 10 -3 26 -11 35 -11 13 -11 16 -1 14 7 -2 15
3 18 11 2 8 0 11 -6 8 -12 -8 -38 21 -27 31 4 4 10 1 12 -5 6 -18 30 -16 37 3
3 9 2 12 -5 9 -7 -5 -8 5 -4 28 4 21 3 37 -4 41 -16 10 -13 26 4 26 8 0 15 -4
15 -9 0 -5 6 -11 14 -14 10 -4 12 0 8 15 -3 14 -1 19 6 14 6 -3 10 -20 10 -37z
m469 14 c1 -22 -1 -24 -8 -10 -6 9 -7 22 -4 27 9 14 10 13 12 -17z m-379 -10
c1 -26 1 -27 -13 -9 -8 10 -12 23 -9 27 10 17 20 9 22 -18z m-171 -5 c-3 -8
-6 -5 -6 6 -1 11 2 17 5 13 3 -3 4 -12 1 -19z m631 -23 c13 5 14 3 5 -6 -17
-17 -33 -2 -32 29 l2 27 4 -28 c3 -22 8 -27 21 -22z m122 25 c0 -5 -5 -10 -11
-10 -5 0 -7 5 -4 10 3 6 8 10 11 10 2 0 4 -4 4 -10z m-783 -12 c-2 -7 2 -21
11 -30 10 -12 11 -18 4 -18 -7 0 -12 4 -12 10 0 5 -7 6 -17 3 -9 -4 -14 -2
-11 3 3 5 8 17 11 27 4 9 9 17 13 17 3 0 4 -6 1 -12z m693 -21 c0 -2 -10 -12
-22 -23 l-23 -19 19 23 c18 21 26 27 26 19z m60 -7 c0 -5 -4 -10 -10 -10 -5 0
-10 5 -10 10 0 6 5 10 10 10 6 0 10 -4 10 -10z m-780 -35 c7 -9 8 -15 2 -15
-5 0 -12 7 -16 15 -3 8 -4 15 -2 15 2 0 9 -7 16 -15z m660 11 c0 -3 -4 -8 -10
-11 -5 -3 -10 -1 -10 4 0 6 5 11 10 11 6 0 10 -2 10 -4z m43 -23 c-6 -15 -4
-16 9 -6 8 7 18 10 21 6 14 -13 6 -19 -23 -19 -32 0 -37 5 -18 24 16 16 19 15
11 -5z m-373 -40 c0 -22 -8 -14 -19 20 -10 29 -9 30 4 13 8 -11 15 -26 15 -33z
m-300 7 c13 -8 13 -10 -2 -10 -9 0 -20 5 -23 10 -8 13 5 13 25 0z m740 0 c0
-5 -4 -10 -10 -10 -5 0 -10 5 -10 10 0 6 5 10 10 10 6 0 10 -4 10 -10z m-52
-26 c-9 -9 -22 -14 -30 -11 -9 4 -6 8 10 12 12 4 22 12 22 18 0 6 3 7 7 3 4
-3 0 -14 -9 -22z m86 10 c3 -8 2 -12 -4 -9 -6 3 -10 10 -10 16 0 14 7 11 14
-7z m-747 -27 c-3 -7 5 -22 16 -34 31 -35 5 -27 -29 8 -21 22 -24 28 -10 23
16 -6 18 -4 13 10 -4 11 -3 15 4 11 5 -4 8 -12 6 -18z m193 -9 c0 -5 -4 -8
-10 -8 -5 0 -10 10 -10 23 0 18 2 19 10 7 5 -8 10 -18 10 -22z m-265 16 c13
-5 45 -53 45 -68 0 -2 -8 -3 -17 -1 -10 2 -21 4 -24 4 -3 1 -16 15 -29 33
l-23 31 36 -27 c21 -16 37 -24 37 -18 0 6 -12 20 -26 31 -28 22 -27 25 1 15z
m354 -49 c0 -15 -3 -12 -13 10 -7 17 -11 34 -8 39 7 12 20 -21 21 -49z m401
41 c0 -2 -7 -7 -16 -10 -8 -3 -12 -2 -9 4 6 10 25 14 25 6z m534 -47 c-3 -6
-11 -3 -20 8 -21 28 -17 46 6 23 12 -12 18 -25 14 -31z m-449 31 c3 -6 -1 -7
-9 -4 -18 7 -21 14 -7 14 6 0 13 -4 16 -10z m-584 -32 c17 -32 3 -31 -21 1
-16 24 -17 29 -5 25 8 -4 20 -15 26 -26z m66 0 c-3 -8 -6 -5 -6 6 -1 11 2 17
5 13 3 -3 4 -12 1 -19z m437 13 c4 -5 -3 -7 -14 -4 -23 6 -26 13 -6 13 8 0 17
-4 20 -9z m66 -13 c0 -6 -7 -7 -16 -4 -9 3 -18 6 -20 6 -3 0 -3 4 1 10 7 11
35 2 35 -12z m411 -16 c11 -29 5 -28 -16 4 -11 17 -12 25 -4 22 6 -2 16 -14
20 -26z m259 -39 c-7 -24 -8 -21 -9 22 0 38 2 45 9 28 5 -12 5 -34 0 -50z
m-715 37 c-3 -5 -11 -10 -16 -10 -6 0 -7 5 -4 10 3 6 11 10 16 10 6 0 7 -4 4
-10z m18 -16 c-4 -12 0 -14 23 -9 29 5 29 5 4 -6 l-25 -12 25 -6 25 -7 -25 -7
c-38 -10 -42 -9 -35 13 4 12 2 20 -6 20 -9 0 -8 4 1 15 16 19 21 19 13 -1z
m510 -31 c3 -23 9 -48 13 -55 6 -11 5 -11 -8 0 -17 13 -29 68 -20 90 7 19 10
12 15 -35z m-31 -14 c0 -5 1 -15 2 -21 1 -7 4 -15 7 -18 10 -9 19 -70 10 -70
-9 0 -21 36 -26 78 -2 13 -9 30 -16 38 -10 12 -9 13 5 8 9 -3 17 -10 18 -15z
m-1190 -24 c3 3 13 -6 22 -19 15 -24 15 -25 -1 -19 -11 4 -14 3 -9 -5 4 -7 4
-12 -1 -12 -4 0 -14 14 -21 30 -15 34 -33 41 -25 10 3 -11 9 -17 14 -14 5 3 6
-2 3 -11 -5 -12 -10 -13 -20 -4 -8 6 -12 15 -9 19 3 4 -12 2 -33 -6 -35 -12
-84 -19 -54 -7 10 4 10 8 1 19 -10 12 -9 13 6 8 11 -5 16 -4 12 3 -7 12 26 14
34 1 3 -4 14 0 25 11 16 16 21 17 35 5 9 -8 18 -12 21 -9z m1395 -32 c-3 -10
-5 -2 -5 17 0 19 2 27 5 18 2 -10 2 -26 0 -35z m-647 0 c0 -3 -7 -3 -15 1 -8
3 -15 0 -15 -6 0 -6 -3 -9 -6 -5 -11 10 6 26 21 20 8 -3 15 -7 15 -10z m-79
-28 c21 -23 36 -32 43 -26 7 6 20 3 36 -9 14 -11 20 -20 13 -20 -6 0 -15 5
-18 10 -3 6 -14 10 -23 10 -15 0 -15 -2 -2 -10 13 -9 13 -10 0 -10 -9 0 -22 9
-30 19 -7 11 -16 19 -19 17 -3 -2 -16 10 -29 25 -33 41 -9 36 29 -6z m254 25
c3 -5 -1 -10 -10 -10 -9 0 -13 5 -10 10 3 6 8 10 10 10 2 0 7 -4 10 -10z
m-875 -36 c0 -8 -5 -12 -10 -9 -6 4 -8 11 -5 16 9 14 15 11 15 -7z m-47 -39
c-3 -9 1 -15 8 -15 10 -1 9 -5 -3 -14 -10 -7 -18 -22 -18 -32 0 -16 4 -15 25
9 14 15 27 27 29 27 9 0 1 -38 -12 -55 -11 -16 -13 -16 -9 -2 7 18 -8 24 -18
7 -3 -5 -12 -7 -20 -3 -10 3 -15 -1 -16 -13 0 -11 -3 -14 -6 -6 -2 6 -9 10
-13 7 -5 -3 -8 8 -8 25 1 21 6 30 18 30 11 0 20 11 24 31 3 17 10 28 15 24 6
-3 8 -12 4 -20z m-46 1 c3 -3 2 -9 -1 -15 -7 -11 -46 7 -46 21 0 7 39 2 47 -6z
m878 -6 c-13 -4 -15 -9 -7 -14 7 -4 17 -4 22 -1 6 3 10 0 10 -8 0 -24 28 -29
35 -6 4 10 11 19 17 19 7 0 6 -5 -2 -15 -6 -8 -9 -18 -6 -24 14 -22 -24 -16
-66 11 -36 24 -44 33 -35 43 6 6 20 10 31 7 19 -5 19 -6 1 -12z m-278 -30 c-1
-27 4 -44 16 -52 9 -7 13 -17 9 -23 -10 -14 -35 -12 -45 3 -5 7 -12 10 -18 7
-5 -4 -9 1 -9 9 0 9 -4 16 -10 16 -5 0 -7 -7 -3 -16 5 -14 3 -14 -15 -3 -22
14 -19 36 6 57 21 16 32 15 32 -3 0 -8 5 -15 10 -15 10 0 14 21 11 48 -1 6 3
12 8 12 5 0 9 -18 8 -40z m333 30 c0 -5 -7 -7 -15 -4 -8 4 -15 8 -15 10 0 2 7
4 15 4 8 0 15 -4 15 -10z m345 -75 c4 -33 9 -92 10 -132 2 -39 6 -76 10 -82 3
-6 1 -11 -4 -11 -6 0 -11 7 -11 16 0 8 -4 13 -8 10 -11 -7 -11 -7 -17 154 -5
136 6 160 20 45z m-775 45 c-8 -5 -19 -10 -25 -10 -5 0 -3 5 5 10 8 5 20 10
25 10 6 0 3 -5 -5 -10z m327 4 c-3 -3 -12 -4 -19 -1 -8 3 -5 6 6 6 11 1 17 -2
13 -5z m-857 -30 c0 -8 -5 -12 -10 -9 -6 4 -8 11 -5 16 9 14 15 11 15 -7z
m297 -6 c-3 -8 -6 -5 -6 6 -1 11 2 17 5 13 3 -3 4 -12 1 -19z m727 13 c3 -5
-1 -11 -9 -14 -9 -4 -12 -1 -8 9 6 16 10 17 17 5z m-749 -34 c23 5 30 -3 26
-29 0 -5 4 -8 10 -8 6 0 8 9 4 21 -6 19 -5 20 8 8 8 -8 13 -17 11 -21 -2 -3 2
-12 9 -20 8 -7 16 -20 20 -28 4 -11 6 -10 7 5 0 17 2 18 13 5 7 -8 21 -20 32
-26 11 -6 21 -22 21 -34 1 -13 17 -37 36 -54 72 -63 86 -74 90 -70 3 2 23 -13
46 -34 23 -22 39 -42 35 -45 -3 -4 -2 -7 3 -7 6 0 18 -6 28 -13 16 -12 14 -13
-21 -13 -22 1 -47 7 -57 15 -14 12 -16 12 -10 -2 3 -9 17 -23 31 -32 14 -10
22 -12 19 -6 -4 6 -2 11 4 11 7 0 9 -8 5 -20 -3 -11 -3 -20 2 -20 4 0 19 -18
33 -40 13 -22 28 -40 32 -40 4 0 8 -6 8 -14 0 -7 6 -19 14 -25 8 -7 12 -26 10
-53 -2 -23 0 -46 5 -52 5 -6 8 -29 6 -51 -1 -22 4 -59 12 -83 22 -65 14 -80
-22 -46 -38 35 -70 41 -52 10 6 -12 10 -24 9 -28 -1 -5 6 -8 16 -8 11 0 27 -9
37 -20 10 -11 25 -20 34 -20 11 0 12 -3 4 -11 -6 -6 -9 -18 -6 -25 8 -20 -9
-17 -61 12 -42 23 -48 31 -45 50 1 3 -11 18 -25 33 -15 15 -23 31 -19 36 5 4
0 5 -10 2 -13 -5 -17 -3 -15 5 3 7 -5 20 -16 29 -17 14 -18 19 -7 32 7 9 10
20 7 25 -3 5 4 22 16 38 13 15 18 25 11 21 -7 -5 -9 0 -6 13 3 11 9 17 15 14
10 -6 6 41 -5 52 -11 11 -8 39 4 51 8 8 18 4 36 -15 l25 -27 -24 35 c-32 49
-70 81 -91 76 -9 -2 -15 0 -12 4 9 14 -34 32 -58 24 -18 -5 -20 -4 -9 7 15 16
17 38 1 22 -8 -8 -16 -6 -29 7 -20 20 -86 37 -98 26 -3 -4 0 -11 8 -16 9 -6 1
-12 -31 -20 -54 -15 -95 -15 -133 -1 -26 10 -28 10 -16 -4 11 -13 10 -14 -4
-9 -9 3 -16 1 -16 -5 0 -6 -7 -8 -15 -5 -8 4 -15 2 -15 -2 0 -9 -53 -36 -76
-40 -6 -1 -22 -5 -35 -9 l-24 -7 23 22 c12 11 32 22 43 23 12 1 18 6 14 15 -3
9 1 12 13 8 11 -4 30 8 56 34 26 27 48 40 66 40 15 0 30 3 34 7 3 4 16 8 27
10 26 4 47 24 41 41 -3 9 3 11 22 6 19 -4 26 -3 24 6 -3 12 4 15 68 21 22 2
30 7 27 17 -3 7 -12 11 -19 8 -8 -3 -19 4 -25 15 -7 15 -18 20 -34 17 -18 -4
-21 -1 -17 14 3 12 -1 18 -12 18 -9 0 -17 9 -17 23 -1 12 -2 29 -3 37 -2 22
-16 41 -27 34 -5 -3 -7 -10 -4 -15 4 -5 -2 -6 -11 -2 -14 5 -16 3 -11 -11 5
-14 3 -17 -8 -12 -18 7 -18 8 0 -45 14 -39 14 -45 0 -55 -8 -6 -15 -17 -15
-24 0 -9 -3 -10 -13 -1 -8 6 -17 8 -20 4 -4 -3 -9 0 -12 8 -4 11 -49 17 -72
10 -2 -1 -6 -2 -10 -3 -5 -1 -19 -7 -32 -14 -35 -18 -46 -6 -17 17 14 11 25
23 25 27 -3 18 3 22 19 13 16 -9 18 -6 16 22 -2 18 -1 24 2 15 3 -10 10 -18
15 -18 6 0 7 9 4 20 -7 23 15 91 27 84 5 -3 6 7 3 23 -3 15 -2 22 1 16 10 -22
26 -14 19 10 l-7 22 16 -21 c11 -15 23 -20 41 -17z m665 -17 c0 -5 -2 -10 -4
-10 -3 0 -8 5 -11 10 -3 6 -1 10 4 10 6 0 11 -4 11 -10z m34 -6 c9 -24 2 -26
-12 -4 -7 11 -8 20 -3 20 5 0 12 -7 15 -16z m-2 -43 c16 -18 15 -20 -2 -18
-10 1 -21 9 -23 19 -7 23 4 23 25 -1z m-68 -47 c3 -8 2 -12 -4 -9 -6 3 -10 10
-10 16 0 14 7 11 14 -7z m-568 -21 c-10 -10 -19 5 -10 18 6 11 8 11 12 0 2 -7
1 -15 -2 -18z m643 13 c9 -11 9 -16 0 -22 -8 -4 -9 -3 -5 4 4 7 2 12 -3 12 -6
0 -11 5 -11 10 0 14 5 13 19 -4z m-185 -17 c-6 -11 -24 -2 -24 11 0 5 7 7 15
4 8 -4 12 -10 9 -15z m-944 -9 c0 -5 -4 -10 -10 -10 -5 0 -10 5 -10 10 0 6 5
10 10 10 6 0 10 -4 10 -10z m905 0 c-3 -5 -10 -10 -16 -10 -5 0 -9 5 -9 10 0
6 7 10 16 10 8 0 12 -4 9 -10z m-90 -40 c-4 -12 -9 -19 -12 -17 -3 3 -2 15 2
27 4 12 9 19 12 17 3 -3 2 -15 -2 -27z m333 -11 c19 -30 8 -34 -12 -4 -9 14
-13 25 -9 25 5 0 14 -9 21 -21z m-1208 -4 c7 -9 8 -15 2 -15 -5 0 -12 7 -16
15 -3 8 -4 15 -2 15 2 0 9 -7 16 -15z m997 -16 c-14 -8 -22 -8 -30 0 -8 8 -3
11 19 11 25 -1 27 -2 11 -11z m-1077 -9 c0 -5 -4 -10 -10 -10 -5 0 -10 5 -10
10 0 6 5 10 10 10 6 0 10 -4 10 -10z m1020 -23 c8 -2 18 -4 21 -3 3 0 13 -5
22 -13 10 -7 17 -9 17 -4 0 5 15 20 33 33 18 14 26 16 18 7 -9 -12 -10 -17 -2
-17 6 0 14 7 17 15 9 23 24 18 24 -10 0 -13 -8 -28 -17 -34 -16 -9 -16 -11 7
-20 18 -7 20 -10 7 -10 -10 -1 -15 -5 -12 -11 3 -5 3 -10 -2 -10 -24 -1 -35
-18 -24 -39 10 -18 9 -20 -6 -14 -13 5 -15 3 -10 -11 4 -11 3 -15 -4 -10 -6 4
-16 0 -21 -7 -8 -11 -9 -11 -5 2 3 9 0 25 -8 36 -7 10 -15 30 -17 43 -4 29
-54 62 -66 43 -9 -14 -25 -5 -39 22 -17 34 -6 47 25 31 15 -8 34 -16 42 -19z
m-974 6 c4 -10 7 -20 6 -24 0 -3 16 -6 35 -7 58 -4 70 -19 30 -38 -20 -9 -32
-6 -68 15 -39 23 -43 28 -34 49 12 27 20 28 31 5z m1291 -60 c16 10 31 -7 34
-38 2 -16 7 -35 12 -42 4 -6 3 -14 -4 -18 -15 -10 -31 16 -19 30 6 8 -3 23
-26 46 -20 19 -40 43 -45 54 -6 12 0 8 14 -9 14 -16 29 -26 34 -23z m-286 -77
c-6 -7 -9 -20 -6 -27 8 -25 14 -69 8 -69 -3 0 -12 8 -20 18 -13 15 -13 15 -3
-7 8 -14 8 -27 2 -33 -5 -5 -16 9 -27 39 -10 26 -22 52 -26 58 -14 14 -11 25
5 19 8 -3 17 -15 22 -27 6 -18 8 -15 11 18 6 63 11 72 29 46 12 -16 13 -25 5
-35z m219 44 c0 -5 -4 -10 -9 -10 -6 0 -13 5 -16 10 -3 6 1 10 9 10 9 0 16 -4
16 -10z m-105 -30 c3 -5 1 -10 -4 -10 -6 0 -11 5 -11 10 0 6 2 10 4 10 3 0 8
-4 11 -10z m-845 -60 c0 -5 -2 -10 -4 -10 -3 0 -8 5 -11 10 -3 6 -1 10 4 10 6
0 11 -4 11 -10z m1066 -15 c-4 -17 -2 -25 6 -25 10 0 10 -2 0 -8 -7 -5 -10
-16 -6 -27 5 -13 3 -16 -7 -13 -9 3 -14 18 -13 39 2 54 3 59 15 59 7 0 9 -10
5 -25z m-656 -20 c5 -3 10 -2 10 4 0 20 50 -12 71 -46 11 -18 24 -33 29 -33 5
0 18 -14 31 -31 16 -23 19 -33 10 -42 -8 -8 -11 -5 -11 11 0 12 -4 22 -10 22
-13 0 -13 -16 0 -41 6 -10 8 -19 6 -19 -3 0 -17 22 -30 48 -13 27 -31 54 -40
61 -9 7 -13 18 -9 24 3 6 1 7 -5 3 -7 -4 -12 -3 -12 2 0 6 -8 13 -17 17 -28
10 -83 16 -83 7 0 -16 18 -34 28 -28 12 7 62 -13 62 -26 0 -10 -15 -16 -47
-21 -11 -2 -28 -9 -36 -15 -8 -7 -27 -11 -43 -8 -34 7 -48 -2 -34 -19 7 -8 8
-20 3 -28 -7 -13 -10 -13 -21 -1 -8 9 -9 14 -2 14 6 0 8 5 5 10 -4 6 -11 8
-16 5 -5 -3 -6 2 -2 11 4 12 3 15 -5 10 -7 -4 -20 0 -29 9 -11 12 -13 19 -5
24 6 3 15 19 21 34 8 19 17 27 35 27 18 0 24 -4 20 -15 -4 -8 -2 -15 4 -15 5
0 12 9 15 20 8 32 71 47 107 25z m-459 -24 c-11 -7 -11 -12 2 -31 11 -16 13
-29 6 -47 -6 -17 -6 -22 2 -17 8 5 10 -1 7 -20 -3 -14 -1 -26 4 -26 5 0 0 -15
-12 -34 -14 -24 -17 -37 -9 -41 7 -5 7 -11 1 -17 -13 -13 -35 0 -26 14 4 7 2
8 -5 4 -14 -9 3 -36 23 -36 6 0 17 -9 24 -20 7 -11 8 -20 3 -20 -6 0 -14 6
-18 14 -4 7 -19 17 -33 20 -19 6 -22 5 -10 -3 13 -10 13 -12 0 -21 -19 -13
-33 -13 -25 0 3 6 1 10 -6 10 -7 0 -9 9 -5 28 11 45 12 116 1 124 -6 5 -5 8 3
8 7 0 11 4 7 9 -3 5 7 22 22 37 16 16 23 29 16 31 -14 5 15 43 32 43 5 0 4 -4
-4 -9z m804 -41 c10 -11 16 -20 13 -20 -3 0 -13 9 -23 20 -10 11 -16 20 -13
20 3 0 13 -9 23 -20z m-17 -26 c-4 -3 -12 5 -18 18 -12 22 -12 22 6 6 10 -10
15 -20 12 -24z m337 16 c3 -5 -1 -10 -9 -10 -8 0 -18 5 -21 10 -3 6 1 10 9 10
8 0 18 -4 21 -10z m50 -40 c0 -13 -4 -25 -10 -27 -5 -1 -10 11 -10 27 0 17 4
29 10 27 5 -2 10 -14 10 -27z m-380 -1 c11 -17 -1 -21 -15 -4 -8 9 -8 15 -2
15 6 0 14 -5 17 -11z m320 -9 c3 -5 -1 -10 -9 -10 -8 0 -18 5 -21 10 -3 6 1
10 9 10 8 0 18 -4 21 -10z m-1707 -35 c-3 -3 -9 2 -12 12 -6 14 -5 15 5 6 7
-7 10 -15 7 -18z m1685 -2 c-9 -3 -10 -10 -3 -24 8 -14 7 -19 -2 -19 -7 0 -14
11 -14 25 -1 17 3 25 15 24 10 0 11 -2 4 -6z m-488 -42 c3 -5 1 -12 -5 -16 -5
-3 -10 1 -10 9 0 18 6 21 15 7z m-1197 -96 c0 -34 -1 -36 -8 -15 -4 14 -8 41
-8 60 -1 28 1 31 8 15 5 -11 8 -38 8 -60z m1147 56 c-3 -5 -1 -12 5 -16 5 -3
10 -1 10 5 0 6 5 8 10 5 13 -8 3 -26 -13 -24 -7 2 -24 -4 -40 -11 -20 -10 -31
-10 -38 -3 -14 14 -3 34 14 27 7 -2 21 2 32 10 23 18 28 19 20 7z m-340 -35
c24 -17 14 -46 -15 -39 -25 7 -32 17 -24 37 7 20 15 20 39 2z m261 -3 c19 -25
17 -33 -7 -33 -11 0 -18 4 -14 9 3 5 1 12 -5 16 -6 4 -8 11 -5 16 9 13 16 11
31 -8z m-340 -30 c-8 -8 -36 5 -36 17 0 7 6 7 21 0 11 -7 18 -14 15 -17z
m-159 -19 c-3 -3 -12 -4 -19 -1 -8 3 -5 6 6 6 11 1 17 -2 13 -5z m-552 -101
c3 -27 8 -57 11 -68 4 -15 3 -17 -4 -5 -6 8 -13 35 -16 60 -4 25 -9 59 -12 75
-4 26 -3 27 6 8 5 -13 12 -44 15 -70z m534 65 c-14 -27 -24 -28 -24 -3 0 16 6
23 17 22 12 -1 14 -5 7 -19z m731 -74 c0 -2 -7 -4 -15 -4 -8 0 -15 4 -15 10 0
5 7 7 15 4 8 -4 15 -8 15 -10z m-670 -14 c0 -5 -4 -10 -10 -10 -5 0 -10 -9
-10 -19 0 -11 -4 -23 -10 -26 -6 -3 -7 1 -4 9 4 11 -2 19 -17 25 -24 10 -24
10 4 10 15 1 27 6 27 11 0 6 5 10 10 10 6 0 10 -4 10 -10z m723 -27 c15 -16
38 -28 49 -28 29 0 31 -15 9 -45 -18 -23 -22 -24 -60 -14 -24 7 -41 7 -41 2 0
-5 -5 -6 -11 -3 -6 5 -3 13 10 22 19 12 21 40 3 29 -4 -2 -8 11 -9 30 -2 41
11 43 50 7z m-658 -13 c-3 -5 -11 -10 -16 -10 -6 0 -7 5 -4 10 3 6 11 10 16
10 6 0 7 -4 4 -10z m580 -10 c-3 -5 -11 -10 -16 -10 -6 0 -7 5 -4 10 3 6 11
10 16 10 6 0 7 -4 4 -10z m-315 -19 c0 -6 -4 -13 -10 -16 -5 -3 -10 1 -10 9 0
9 5 16 10 16 6 0 10 -4 10 -9z m-415 -39 c-4 -4 -10 -1 -12 6 -3 6 -10 10 -16
6 -7 -3 -3 2 8 11 18 15 20 15 23 0 2 -9 1 -20 -3 -23z m40 28 c3 -5 -1 -10
-10 -10 -9 0 -13 5 -10 10 3 6 8 10 10 10 2 0 7 -4 10 -10z m685 -6 c0 -8 -4
-12 -10 -9 -5 3 -10 10 -10 16 0 5 5 9 10 9 6 0 10 -7 10 -16z m-630 -14 c0
-5 -7 -10 -16 -10 -8 0 -12 5 -9 10 3 6 10 10 16 10 5 0 9 -4 9 -10z m620 -31
c0 -6 -4 -7 -10 -4 -5 3 -10 11 -10 16 0 6 5 7 10 4 6 -3 10 -11 10 -16z m143
-40 c4 -14 0 -19 -16 -19 -18 0 -19 -2 -7 -10 8 -5 11 -10 5 -11 -5 -1 -14 -3
-20 -4 -5 -2 -15 -3 -21 -4 -13 -1 -14 -51 -1 -51 4 0 7 -8 7 -17 0 -13 -3
-14 -12 -5 -8 8 -15 8 -24 1 -23 -19 -27 11 -4 31 22 19 22 20 4 27 -11 3 -29
13 -42 21 -21 13 -21 16 -7 32 8 9 12 20 8 23 -3 4 -1 7 6 7 8 0 11 -11 9 -30
-2 -16 2 -29 7 -30 6 0 10 6 10 13 0 6 7 18 15 25 10 9 10 11 2 7 -11 -6 -12
-3 -3 13 9 18 15 19 45 10 19 -6 37 -19 39 -29z m-848 1 c-3 -5 -14 -10 -23
-10 -15 0 -15 2 -2 10 20 13 33 13 25 0z m58 -65 c-3 -9 -8 -14 -10 -11 -3 3
-2 9 2 15 9 16 15 13 8 -4z m662 6 c3 -5 1 -12 -5 -16 -5 -3 -10 1 -10 9 0 18
6 21 15 7z m426 -25 c-14 -36 -22 -33 -9 5 6 16 12 28 14 26 3 -2 0 -16 -5
-31z m69 24 c0 -5 -2 -10 -4 -10 -3 0 -8 5 -11 10 -3 6 -1 10 4 10 6 0 11 -4
11 -10z m-345 -33 c1 -7 6 -11 13 -9 17 3 15 -18 -3 -24 -8 -4 -15 -12 -15
-19 0 -18 -37 -7 -44 12 -4 10 -2 13 8 10 9 -4 16 4 20 25 6 29 20 32 21 5z
m331 -11 c0 -14 -5 -21 -9 -17 -4 4 -5 15 -1 24 9 24 12 21 10 -7z m-1191 -5
c3 -5 1 -12 -5 -16 -5 -3 -10 1 -10 9 0 18 6 21 15 7z m400 -9 c-3 -3 -11 0
-18 7 -9 10 -8 11 6 5 10 -3 15 -9 12 -12z m57 -4 c-7 -7 -12 -8 -12 -2 0 6 3
14 7 17 3 4 9 5 12 2 2 -3 -1 -11 -7 -17z m476 -22 c-3 -13 -6 -13 -22 0 -20
14 -20 14 0 28 16 13 19 13 22 0 2 -8 2 -20 0 -28z m-666 12 c-7 -7 -12 -8
-12 -2 0 6 3 14 7 17 3 4 9 5 12 2 2 -3 -1 -11 -7 -17z m439 -22 c-17 -5 -31
-15 -31 -22 0 -7 -4 -15 -8 -18 -5 -3 -6 9 -4 25 5 35 38 54 61 35 11 -9 8
-13 -18 -20z m73 5 c3 -5 -1 -11 -9 -15 -9 -3 -15 0 -15 9 0 16 16 20 24 6z
m-559 -10 c3 -6 -3 -9 -14 -8 -11 0 -17 5 -15 9 7 11 22 10 29 -1z m519 -52
c-5 -9 1 -10 20 -5 24 6 26 4 26 -26 0 -30 -1 -31 -15 -12 -9 12 -14 14 -15 6
0 -7 -5 -10 -10 -7 -6 4 -8 11 -5 16 4 5 -1 12 -9 15 -21 8 -21 24 0 24 9 0
12 -5 8 -11z"/>
<path d="M1860 2664 c0 -8 5 -12 10 -9 6 3 10 10 10 16 0 5 -4 9 -10 9 -5 0
-10 -7 -10 -16z"/>
<path d="M2015 2650 c10 -34 26 -50 20 -20 -2 13 -10 28 -16 34 -8 8 -9 4 -4
-14z"/>
<path d="M2243 2106 c-6 -8 -9 -17 -6 -20 12 -11 19 -6 20 14 2 23 2 23 -14 6z"/>
<path d="M2247 2050 c-16 -16 -17 -18 -1 -24 16 -6 44 9 44 24 0 17 -26 16
-43 0z"/>
<path d="M2430 2515 c-8 -9 -8 -15 -2 -15 12 0 26 19 19 26 -2 2 -10 -2 -17
-11z"/>
<path d="M2423 2412 c1 -14 5 -18 11 -12 7 7 6 14 -1 21 -9 9 -12 7 -10 -9z"/>
<path d="M871 1186 c-33 -68 -54 -96 -114 -152 -81 -76 -77 -74 -227 -137 -58
-25 -190 -84 -295 -131 -104 -48 -200 -91 -212 -96 l-23 -10 0 -330 0 -330
516 0 516 0 -6 38 c-3 20 -10 93 -16 162 -18 229 -53 549 -86 780 -15 107 -15
176 2 258 12 59 -14 35 -55 -52z"/>
<path d="M2775 1210 c26 -146 8 -278 -56 -420 -39 -89 -51 -126 -24 -80 l15
25 -6 -30 c-4 -16 -38 -124 -76 -240 -38 -116 -84 -267 -102 -337 l-32 -128
623 0 623 0 0 300 0 299 -85 26 c-47 14 -122 36 -167 50 -89 27 -168 64 -347
166 -83 46 -138 87 -202 147 -77 73 -90 91 -109 145 -11 34 -30 73 -41 87
l-21 25 7 -35z"/>
<path d="M1925 770 c3 -5 13 -10 22 -10 9 0 14 -3 11 -6 -3 -3 -64 -7 -134
-10 -120 -4 -127 -3 -104 12 24 15 24 15 -20 9 -61 -8 -167 -40 -232 -70 -62
-29 -176 -99 -198 -122 -8 -9 3 -4 25 11 22 14 45 26 51 26 6 0 21 9 34 20 45
39 87 20 175 -78 25 -28 64 -61 86 -74 28 -15 43 -33 54 -62 22 -63 22 -67
-19 -130 -21 -32 -63 -109 -92 -170 l-54 -111 127 -3 c94 -2 128 1 135 10 6
10 8 10 8 1 0 -10 32 -13 125 -13 l125 0 0 25 c0 33 -58 285 -71 308 -14 25
33 107 61 107 11 0 20 4 20 9 0 5 38 33 85 63 85 53 100 68 68 68 -14 0 -14 2
2 20 21 24 22 23 -79 90 -74 50 -229 109 -211 80z m-58 -62 c-3 -8 -6 -5 -6 6
-1 11 2 17 5 13 3 -3 4 -12 1 -19z m-55 -398 c-9 -16 -19 -25 -21 -19 -3 9 26
49 35 49 2 0 -5 -13 -14 -30z m118 16 c0 -2 -8 -10 -17 -17 -16 -13 -17 -12
-4 4 13 16 21 21 21 13z m-207 -221 c-3 -9 -8 -14 -10 -11 -3 3 -2 9 2 15 9
16 15 13 8 -4z m-8 -60 c-2 -26 -12 -42 -19 -34 -7 7 6 59 14 59 5 0 7 -11 5
-25z m206 -22 c-12 -20 -14 -14 -5 12 4 9 9 14 11 11 3 -2 0 -13 -6 -23z"/>
<path d="M2246 586 c3 -8 13 -17 22 -21 13 -5 13 -2 -3 15 -21 24 -26 25 -19
6z"/>
</g>
</svg>
